<svg width="18" height="18" viewBox="0 0 18 18" fill="none" xmlns="http://www.w3.org/2000/svg">
<path d="M13.9286 0.285713H3.21429C1.43973 0.285713 0 1.72545 0 3.5V14.2143C0 15.9888 1.43973 17.4286 3.21429 17.4286H9.15179V10.7879H6.91964V8.19866H9.15179V6.29018C9.15179 4.08036 10.5134 2.875 12.4888 2.875C13.4263 2.875 14.2411 2.94196 14.4754 2.97545V5.28571L13.1138 5.29688C12.0312 5.29688 11.8304 5.79911 11.8304 6.54687V8.19866H14.3862L14.0513 10.7879H11.8304V17.4286H13.9286C15.7031 17.4286 17.1429 15.9888 17.1429 14.2143V3.5C17.1429 1.72545 15.7031 0.285713 13.9286 0.285713Z" fill="white"/>
</svg>
